<?xml version="1.0" encoding="UTF-8" standalone="no"?>
<svg
   xmlns:dc="http://purl.org/dc/elements/1.1/"
   xmlns:cc="http://creativecommons.org/ns#"
   xmlns:rdf="http://www.w3.org/1999/02/22-rdf-syntax-ns#"
   xmlns:svg="http://www.w3.org/2000/svg"
   xmlns="http://www.w3.org/2000/svg"
   xmlns:sodipodi="http://sodipodi.sourceforge.net/DTD/sodipodi-0.dtd"
   xmlns:inkscape="http://www.inkscape.org/namespaces/inkscape"
   width="512"
   height="512"
   viewBox="0 0 135.46666 135.46666"
   version="1.1"
   id="svg8"
   sodipodi:docname="hofe_logo.svg"
   inkscape:version="1.0.2-2 (e86c870879, 2021-01-15)"
   inkscape:export-filename="C:\Users\Estid Lozano\Desktop\hofe_logo.png"
   inkscape:export-xdpi="76.39566"
   inkscape:export-ydpi="76.39566">
  <defs
     id="defs2" />
  <sodipodi:namedview
     id="base"
     pagecolor="#ffffff"
     bordercolor="#666666"
     borderopacity="1.0"
     inkscape:pageopacity="0.0"
     inkscape:pageshadow="2"
     inkscape:zoom="1.4142136"
     inkscape:cx="39.217199"
     inkscape:cy="201.82419"
     inkscape:document-units="px"
     inkscape:current-layer="layer1"
     inkscape:document-rotation="0"
     showgrid="true"
     units="px"
     inkscape:window-width="1366"
     inkscape:window-height="705"
     inkscape:window-x="-8"
     inkscape:window-y="-8"
     inkscape:window-maximized="1">
    <inkscape:grid
       type="xygrid"
       id="grid18" />
  </sodipodi:namedview>
  <metadata
     id="metadata5">
    <rdf:RDF>
      <cc:Work
         rdf:about="">
        <dc:format>image/svg+xml</dc:format>
        <dc:type
           rdf:resource="http://purl.org/dc/dcmitype/StillImage" />
        <dc:title></dc:title>
      </cc:Work>
    </rdf:RDF>
  </metadata>
  <g
     inkscape:label="Layer 1"
     inkscape:groupmode="layer"
     id="layer1">
    <path
       id="path93"
       style="fill:#999999;stroke:#000000;stroke-width:0.999999px;stroke-linecap:butt;stroke-linejoin:miter;stroke-opacity:1"
       d="M 310 145 L 280 155 L 250 165 L 250 195 L 250 225 L 250 255 L 250 285 L 280 275 L 280 245 L 310 235 L 310 205 L 280 215 L 280 185 L 310 175 L 310 145 z "
       transform="scale(0.26458332)" />
    <path
       style="fill:#cccccc;stroke:#000000;stroke-width:0.264583px;stroke-linecap:butt;stroke-linejoin:miter;stroke-opacity:1"
       d="m 56.885414,27.781249 -17.197916,5.291666 25.135415,7.9375 17.197916,-5.291667 z"
       id="path93-9"
       sodipodi:nodetypes="ccccc" />
    <path
       id="path93-9-2"
       style="fill:#b3b3b3;stroke:#000000;stroke-width:0.999999px;stroke-linecap:butt;stroke-linejoin:miter;stroke-opacity:1"
       d="M 150 135 L 150 165 L 150 195 L 150 225 L 150 255 L 180 265 L 180 235 L 180 220 L 210 230 L 210 245 L 210 275 L 240 285 L 240 255 L 240 225 L 240 195 L 240 165 L 210 155 L 210 185 L 210 200 L 180 190 L 180 175 L 180 145 L 150 135 z "
       transform="scale(0.26458332)" />
    <path
       style="fill:#666666;stroke:#000000;stroke-width:0.264583px;stroke-linecap:butt;stroke-linejoin:miter;stroke-opacity:1"
       d="m 74.083331,51.593747 -10e-7,5.291667 7.937499,-2.645833 c -3.96875,-1.322917 -3.96875,-1.322917 -7.937498,-2.645834 z"
       id="path93-9-4"
       sodipodi:nodetypes="cccc" />
    <path
       style="fill:#808080;stroke:#000000;stroke-width:0.264583px;stroke-linecap:butt;stroke-linejoin:miter;stroke-opacity:1"
       d="m 55.562496,47.624997 10e-7,5.291667 -7.937499,-2.645833 c 3.96875,-1.322917 3.96875,-1.322917 7.937498,-2.645834 z"
       id="path93-9-4-5"
       sodipodi:nodetypes="cccc" />
  </g>
</svg>
